<svg width="75" height="75" viewBox="0 0 75 75" fill="none" xmlns="http://www.w3.org/2000/svg">
<circle cx="37.5" cy="37.5" r="37.5" fill="#DB2E25"/>
<path d="M17.9506 44.0632L14.0869 40.1996C13.7268 39.8424 13.4452 39.4139 13.2603 38.9416C13.0753 38.4692 12.9911 37.9635 13.0129 37.4567C13.0347 36.9499 13.1621 36.4533 13.387 35.9986C13.6119 35.5439 13.9292 35.1412 14.3187 34.8163C18.7124 31.2839 23.8733 28.8313 29.3869 27.6557C34.476 26.5213 39.7524 26.5213 44.8415 27.6557C50.3778 28.8389 55.5576 31.3097 59.9611 34.8678C60.3495 35.1918 60.6661 35.593 60.8908 36.046C61.1156 36.4991 61.2435 36.9939 61.2666 37.4991C61.2896 38.0043 61.2071 38.5087 61.0245 38.9803C60.8419 39.4519 60.5631 39.8803 60.2058 40.2382L56.3422 44.1019C55.7233 44.733 54.8961 45.1176 54.0146 45.184C53.1332 45.2503 52.2577 44.9939 51.5513 44.4625C50.1518 43.3891 48.6353 42.4775 47.0308 41.7451C46.3966 41.4574 45.8581 40.9939 45.4792 40.4096C45.1003 39.8252 44.8969 39.1445 44.893 38.4481V35.1769C39.8353 33.786 34.4961 33.786 29.4384 35.1769V38.4481C29.4345 39.1445 29.2311 39.8252 28.8522 40.4096C28.4733 40.9939 27.9348 41.4574 27.3006 41.7451C25.6961 42.4775 24.1796 43.3891 22.7801 44.4625C22.0662 44.9998 21.1798 45.2561 20.2893 45.1825C19.3988 45.1088 18.5665 44.7105 17.9506 44.0632Z" fill="white"/>
</svg>
